<?xml version="1.0" encoding="utf-8"?>
<!-- Generator: Adobe Illustrator 22.1.0, SVG Export Plug-In . SVG Version: 6.00 Build 0)  -->
<svg version="1.2" baseProfile="tiny" id="Layer_1" xmlns="http://www.w3.org/2000/svg" xmlns:xlink="http://www.w3.org/1999/xlink"
	 x="0px" y="0px" viewBox="0 0 1196.3 69.6" xml:space="preserve">
<g>
	<path fill="#FFFFFF" d="M0,0.8h28.9v4H4.4v19h21.7v4H4.4v21h25.1v4H0V0.8z"/>
	<path fill="#FFFFFF" d="M80.9,48.8c-4.5,3-10.9,4.9-17.3,4.9c-15.6,0-26.9-11.6-26.9-26.8C36.7,11.8,47.7,0,64,0
		c6,0,11.2,1.7,15.3,4v5c-4-3-9.4-5-15.5-5c-13.7,0-22.8,10.1-22.8,22.8c0,12.5,8.9,22.8,22.8,22.8c4.7,0,9.1-1.2,12.5-3.1V32H63.2
		v-4h17.6V48.8z"/>
	<path fill="#FFFFFF" d="M104.8,19.5c-2.6-3.7-5.3-7.7-7.8-11.3l-0.1,0.1C97,12.5,97,17.1,97,21.6v31.3h-4.2V0.8H97l20.2,29.1
		l20.2-29.1h4.2v52.1h-4.4V21.6c0-4.5,0-9.1,0.1-13.3l-0.1-0.1c-2.4,3.6-5.2,7.6-7.8,11.3l-12.3,17.7L104.8,19.5z"/>
	<path fill="#FFFFFF" d="M172.3,0.8h4.4v52.1h-4.4V0.8z"/>
	<path fill="#FFFFFF" d="M189.4,17.5h4.2v5l0.1,0.1c3.5-3.2,8.1-5.8,13.6-5.8c4,0,7,1.4,9.1,3.6c2.2,2.3,3.2,5.3,3.2,10.6v22h-4.2
		V31.7c0-4.2-0.6-6.8-2.2-8.5c-1.6-1.7-4-2.5-6.6-2.5c-4.8,0-9.4,2.7-12.9,6.3v25.9h-4.2V17.5z"/>
	<path fill="#FFFFFF" d="M256.2,17.5h4.5l-15.1,35.4h-4.2l-15.1-35.4h4.6l7.4,17.5c1.7,4.1,3.5,8.4,5.2,12.5h0.1
		c1.7-4,3.5-8.4,5.2-12.5L256.2,17.5z"/>
	<path fill="#FFFFFF" d="M268.9,36.4c0.7,8.4,6.7,13.5,15,13.5c4.8,0,8.6-1.7,11.9-4.1v4.6c-3.2,2-7.8,3.3-12.2,3.3
		c-10.9,0-18.9-7.5-18.9-18.5c0-10.9,7.9-18.5,17.5-18.5c8.6,0,15.7,6.1,15.7,16.6c0,1.1-0.1,2.2-0.1,3H268.9z M293.8,32.8
		c-0.2-9.5-6.9-12.3-11.7-12.3c-5.9,0-11.9,4.1-13,12.3H293.8z"/>
	<path fill="#FFFFFF" d="M308.1,17.5h4.2v5l0.1,0.1c3.5-3.2,8.1-5.8,13.6-5.8c4,0,7,1.4,9.1,3.6c2.2,2.3,3.2,5.3,3.2,10.6v22h-4.2
		V31.7c0-4.2-0.6-6.8-2.2-8.5c-1.6-1.7-4-2.5-6.6-2.5c-4.8,0-9.4,2.7-12.9,6.3v25.9h-4.2V17.5z"/>
	<path fill="#FFFFFF" d="M368.9,52.6c-1.4,0.6-3.5,1.2-5.6,1.2c-2.6,0-5.5-0.7-7.6-3c-1.8-2.1-2.5-5.3-2.5-9.9V21.2h-7.1v-3.7h7.1
		V7.6l4.2-0.7v10.7h11.4v3.7h-11.4v18.9c0,5.3,0.8,9.7,6.4,9.7c1.9,0,3.7-0.5,5-1.3V52.6z"/>
	<path fill="#FFFFFF" d="M392.4,16.7c10.6,0,18.4,8.1,18.4,18.5s-7.8,18.5-18.4,18.5S374,45.7,374,35.2S381.8,16.7,392.4,16.7z
		 M392.4,49.8c8.1,0,14.1-6.3,14.1-14.6c0-8.4-6-14.6-14.1-14.6c-8.1,0-14.1,6.3-14.1,14.6C378.3,43.6,384.3,49.8,392.4,49.8z"/>
	<path fill="#FFFFFF" d="M420.6,17.5h4.2v5.8l0.1,0.1c2.7-3.7,6.8-6.2,11.4-6.2c0.8,0,1.4,0.1,2.1,0.2v4.1c-0.6-0.1-1.4-0.2-2.2-0.2
		c-4.8,0-8.6,2.6-11.4,6.9v24.8h-4.2V17.5z"/>
	<path fill="#FFFFFF" d="M472.1,17.5h4.5l-24.5,51.3h-4.5l9.6-19.7l-15-31.6h4.7l7.1,15c1.9,4.1,3.7,8,5.5,11.8h0.1
		c1.7-3.7,3.6-7.8,5.5-11.7L472.1,17.5z"/>
	<path fill="#FFFFFF" d="M515.1,19.5c-2.6-3.7-5.3-7.7-7.8-11.3l-0.1,0.1c0.1,4.2,0.1,8.8,0.1,13.3v31.3H503V0.8h4.2l20.2,29.1
		l20.2-29.1h4.2v52.1h-4.4V21.6c0-4.5,0-9.1,0.1-13.3l-0.1-0.1c-2.4,3.6-5.2,7.6-7.8,11.3l-12.3,17.7L515.1,19.5z"/>
	<path fill="#FFFFFF" d="M585.9,49.3c-2.7,2.3-7,4.4-11.8,4.4c-3,0-6-0.7-8.4-2.4c-2.3-1.7-3.7-4.3-3.7-7.6c0-3.7,1.7-6.4,4.5-8.2
		c2.7-1.7,6.3-2.4,9.7-2.4c3.2,0,6.2,0.5,9.1,1.3v-4.1c0-3.5-0.6-5.7-2.6-7.4c-1.7-1.4-4.1-2.2-7.3-2.2c-4.2,0-8,1.4-10.9,3.5v-4.2
		c2.9-1.8,6.8-3.2,11.3-3.2c4.2,0,7.7,1.1,10.1,3.1s3.6,5.2,3.6,9.5v15.3c0,3,0.7,5.3,3.6,5.3c0.9,0,1.7-0.2,2.3-0.6v3.7
		c-0.8,0.4-1.9,0.6-3.1,0.6c-3,0-5.4-1.4-6.4-4.2H585.9z M585.4,37.7c-2.7-0.8-5.9-1.3-8.8-1.3c-5,0-10.2,1.6-10.2,6.8
		c0,4.6,4,6.6,8.3,6.6c4,0,7.9-1.7,10.7-4.2V37.7z"/>
	<path fill="#FFFFFF" d="M602.8,17.5h4.2v5l0.1,0.1c3.5-3.2,8.1-5.8,13.6-5.8c4,0,7,1.4,9.1,3.6c2.2,2.3,3.2,5.3,3.2,10.6v22h-4.2
		V31.7c0-4.2-0.6-6.8-2.2-8.5c-1.6-1.7-4-2.5-6.6-2.5c-4.8,0-9.4,2.7-12.9,6.3v25.9h-4.2V17.5z"/>
	<path fill="#FFFFFF" d="M666.6,49.3c-2.7,2.3-7,4.4-11.8,4.4c-3,0-6-0.7-8.4-2.4c-2.3-1.7-3.7-4.3-3.7-7.6c0-3.7,1.7-6.4,4.5-8.2
		c2.7-1.7,6.3-2.4,9.7-2.4c3.2,0,6.2,0.5,9.1,1.3v-4.1c0-3.5-0.6-5.7-2.6-7.4c-1.7-1.4-4.1-2.2-7.3-2.2c-4.2,0-8,1.4-10.9,3.5v-4.2
		c2.9-1.8,6.8-3.2,11.3-3.2c4.2,0,7.7,1.1,10.1,3.1s3.6,5.2,3.6,9.5v15.3c0,3,0.7,5.3,3.6,5.3c0.9,0,1.7-0.2,2.3-0.6v3.7
		c-0.8,0.4-1.9,0.6-3.1,0.6c-3,0-5.4-1.4-6.4-4.2H666.6z M666.1,37.7c-2.7-0.8-5.9-1.3-8.8-1.3c-5,0-10.2,1.6-10.2,6.8
		c0,4.6,4,6.6,8.3,6.6c4,0,7.9-1.7,10.7-4.2V37.7z"/>
	<path fill="#FFFFFF" d="M685.4,62.3c3.4,2.2,7.1,3.4,10.9,3.4c7.8,0,12.8-4.8,12.8-12.7v-3.9L709,49c-2.7,2.4-6.7,4-11.1,4
		c-9.6,0-17-7.3-17-17.6c0-9.9,6.6-18.7,17.9-18.7c4,0,7.5,1.2,10.4,2.7l4.1-0.7v34.3c0,10-6.3,16.6-17.1,16.6
		c-4.1,0-7.9-1.1-10.9-2.7V62.3z M709.1,23.5c-2.5-1.7-6.3-3-10.4-3c-8.3,0-13.5,6.4-13.5,14.5s5.3,14.1,13.2,14.1
		c4,0,8-1.6,10.7-4.3V23.5z"/>
	<path fill="#FFFFFF" d="M727.5,36.4c0.7,8.4,6.7,13.5,15,13.5c4.8,0,8.6-1.7,11.9-4.1v4.6c-3.2,2-7.8,3.3-12.2,3.3
		c-10.9,0-18.9-7.5-18.9-18.5c0-10.9,7.9-18.5,17.5-18.5c8.6,0,15.7,6.1,15.7,16.6c0,1.1-0.1,2.2-0.1,3H727.5z M752.3,32.8
		c-0.2-9.5-6.9-12.3-11.7-12.3c-5.9,0-11.9,4.1-13,12.3H752.3z"/>
	<path fill="#FFFFFF" d="M817.3,31.4c0-3.9-0.6-6.5-2.2-8.3c-1.5-1.7-3.9-2.4-6.4-2.4c-4.8,0-9.3,2.7-12.7,6.2
		c0.1,1.2,0.2,2.4,0.2,3.8v22.3H792V31.4c0-4.1-0.5-6.5-2.2-8.3c-1.6-1.7-3.8-2.4-6.5-2.4c-4.8,0-9.1,2.7-12.5,6v26.2h-4.2V17.5h4.2
		v4.8l0.1,0.1c3.5-3.2,7.8-5.7,13.1-5.7c4.5,0,9,1.9,10.9,6.6c4.4-4.2,9.1-6.6,14.3-6.6c3.7,0,6.9,1.2,9.1,3.5s3.1,5.3,3.1,10.4
		v22.3h-4.2V31.4z"/>
	<path fill="#FFFFFF" d="M835.6,36.4c0.7,8.4,6.7,13.5,15,13.5c4.8,0,8.6-1.7,11.9-4.1v4.6c-3.2,2-7.8,3.3-12.2,3.3
		c-10.9,0-18.9-7.5-18.9-18.5c0-10.9,7.9-18.5,17.5-18.5c8.6,0,15.7,6.1,15.7,16.6c0,1.1-0.1,2.2-0.1,3H835.6z M860.4,32.8
		c-0.2-9.5-6.9-12.3-11.7-12.3c-5.9,0-11.9,4.1-13,12.3H860.4z"/>
	<path fill="#FFFFFF" d="M874.7,17.5h4.2v5l0.1,0.1c3.5-3.2,8.1-5.8,13.6-5.8c4,0,7,1.4,9.1,3.6c2.2,2.3,3.2,5.3,3.2,10.6v22h-4.2
		V31.7c0-4.2-0.6-6.8-2.2-8.5c-1.6-1.7-4-2.5-6.6-2.5c-4.8,0-9.4,2.7-12.9,6.3v25.9h-4.2V17.5z"/>
	<path fill="#FFFFFF" d="M935.6,52.6c-1.4,0.6-3.5,1.2-5.6,1.2c-2.6,0-5.5-0.7-7.6-3c-1.8-2.1-2.5-5.3-2.5-9.9V21.2h-7.1v-3.7h7.1
		V7.6l4.2-0.7v10.7h11.4v3.7h-11.4v18.9c0,5.3,0.8,9.7,6.4,9.7c1.9,0,3.7-0.5,5-1.3V52.6z"/>
	<path fill="#FFFFFF" d="M960.3,44.4c4.6,3.7,10.6,5.3,15.4,5.3c7,0,12.1-3.4,12.1-10.2c0-7.7-6.7-9.4-13.5-11.2
		c-7.5-2.1-14.8-4.8-14.8-14.3c0-8.9,6.5-14,15.9-14c4.9,0,10.6,1.4,14.6,4.1v4.8c-4.4-3.2-10-4.8-14.7-4.8
		c-6.8,0-11.4,3.2-11.4,9.6c0,7.4,6.6,8.9,13,10.7c7.4,2.1,15.3,4.8,15.3,14.8c0,9.1-6.7,14.5-16.5,14.5c-5.2,0-11.2-1.5-15.4-4.4
		V44.4z"/>
	<path fill="#FFFFFF" d="M1027.5,17.5h4.5l-24.5,51.3h-4.5l9.6-19.7l-15-31.6h4.7l7.1,15c1.9,4.1,3.7,8,5.5,11.8h0.1
		c1.7-3.7,3.6-7.8,5.5-11.7L1027.5,17.5z"/>
	<path fill="#FFFFFF" d="M1037.7,46.1c3.8,2.4,8.7,3.7,13.4,3.7c6,0,9.8-2.1,9.8-6.3c0-5.3-5.9-5.9-11.4-6.8
		c-5.9-0.9-12.6-2.7-12.6-9.9c0-6.7,5.7-10.2,13.8-10.2c4.6,0,9.3,1.2,12.7,3v4.5c-3.7-2.4-8.5-3.6-12.9-3.6c-5.5,0-9.4,1.9-9.4,6
		c0,5,5.8,5.5,11.1,6.3c6.4,1,13,2.7,13,10.2c0,7-5.7,10.6-14.3,10.6c-4.7,0-9.6-1.1-13.2-3.1V46.1z"/>
	<path fill="#FFFFFF" d="M1092.8,52.6c-1.4,0.6-3.5,1.2-5.6,1.2c-2.6,0-5.5-0.7-7.6-3c-1.8-2.1-2.5-5.3-2.5-9.9V21.2h-7.1v-3.7h7.1
		V7.6l4.2-0.7v10.7h11.4v3.7h-11.4v18.9c0,5.3,0.8,9.7,6.4,9.7c1.9,0,3.7-0.5,5-1.3V52.6z"/>
	<path fill="#FFFFFF" d="M1102.2,36.4c0.7,8.4,6.7,13.5,15,13.5c4.8,0,8.6-1.7,11.9-4.1v4.6c-3.2,2-7.8,3.3-12.2,3.3
		c-10.9,0-18.9-7.5-18.9-18.5c0-10.9,7.9-18.5,17.5-18.5c8.6,0,15.7,6.1,15.7,16.6c0,1.1-0.1,2.2-0.1,3H1102.2z M1127,32.8
		c-0.2-9.5-6.9-12.3-11.7-12.3c-5.9,0-11.9,4.1-13,12.3H1127z"/>
	<path fill="#FFFFFF" d="M1192,31.4c0-3.9-0.6-6.5-2.2-8.3c-1.5-1.7-3.9-2.4-6.4-2.4c-4.8,0-9.3,2.7-12.7,6.2
		c0.1,1.2,0.2,2.4,0.2,3.8v22.3h-4.2V31.4c0-4.1-0.5-6.5-2.2-8.3c-1.6-1.7-3.8-2.4-6.5-2.4c-4.8,0-9.1,2.7-12.5,6v26.2h-4.2V17.5
		h4.2v4.8l0.1,0.1c3.5-3.2,7.8-5.7,13.1-5.7c4.5,0,9,1.9,10.9,6.6c4.4-4.2,9.1-6.6,14.3-6.6c3.7,0,6.9,1.2,9.1,3.5s3.1,5.3,3.1,10.4
		v22.3h-4.2V31.4z"/>
</g>
</svg>
