<?xml version="1.0" encoding="UTF-8"?><svg id="Layer_2" xmlns="http://www.w3.org/2000/svg" viewBox="0 0 705.24 192.1"><defs><style>.cls-1{fill:#fff;stroke:#000;stroke-miterlimit:10;stroke-width:.25px;}</style></defs><g id="Layer_1-2"><g><path class="cls-1" d="m14.03,115.15c3.81,18.71,15.15,29.37,35.77,29.37,22.63,0,31.42-12.25,31.42-27.31s-6.59-25.18-34.58-32.79C17.17,76.34,5.62,65.44,5.62,44.43S19.14,5.96,48.08,5.96s42.87,20,44.61,38.55h-13.89c-2.73-14.57-11.16-25.66-31.31-25.66-17.78,0-27.58,9.07-27.58,24.41s8.16,21.05,32.04,27.57c37.53,10.27,43.56,26.77,43.56,45,0,22.61-14.94,41.29-46.41,41.29C15.86,157.12,2.73,136.2.14,115.15h13.89Z"/><path class="cls-1" d="m115.17,155.36V.12h12.72v155.24h-12.72Z"/><path class="cls-1" d="m232.01,102.06c0,30.01-15.2,55.83-44.01,55.83-26.52,0-42.81-23.56-42.81-55.55s15.61-55.69,43.82-55.69c25.93,0,43,22.08,43,55.41Zm-73.56.21c0,24.36,11.42,43.2,30.27,43.2s30.02-17.63,30.02-43.17-10.69-43.23-30.4-43.23-29.89,18.29-29.89,43.2Z"/><path class="cls-1" d="m235.41,49.18h17.2V16.88h12.72v32.31h21.99v12.25h-21.99v65.9c0,11.17,2.28,17.28,11.21,17.28,2.6,0,6.35-.18,9.2-1.1v11.38c-3.62,1.58-8.7,1.93-12.96,1.93-13.43,0-20.18-7.6-20.18-24.88V61.44h-17.2v-12.25Z"/><path class="cls-1" d="m305.99,125.57c3.01,12.8,11.32,20.42,25.44,20.42,15.65,0,21.91-7.81,21.91-18.67s-4.5-16.45-24.46-21.8c-25.87-6.95-31.79-15.68-31.79-29.88s9.94-28.98,32.89-28.98,33.2,15.2,34.6,30.15h-12.48c-1.56-7.98-7.12-18.35-22.65-18.35s-19.56,8.23-19.56,16.02c0,8.93,4.28,13.37,22.57,18.27,27.87,7.41,34.15,17.62,34.15,33.48,0,19-13.75,31.66-35.51,31.66-23.14,0-35.32-13.27-37.89-32.33h12.79Z"/><path class="cls-1" d="m413.52,9.89v145.47h-28.31V9.89h28.31Z"/><path class="cls-1" d="m548.36,100.79c0-24.82.36-52.65.93-69.09h-.9c-6.15,29.68-19.24,78.14-31.8,123.66h-24.11c-9.55-39.8-23.08-95-28.83-124.05h-.88c1.12,17.07,1.66,47,1.66,71.95v52.1h-25.8V9.89h42.13c10.21,38.01,21.65,85.69,25.58,107.37h.21c3.21-19.12,17.59-70.1,28.51-107.37h40.6v145.47h-27.3v-54.57Z"/><path class="cls-1" d="m620.81,112.72c2.98,14.61,12.42,21.01,27.57,21.01s21.58-6.63,21.58-17.28c0-11.84-6.31-16.98-28.7-22.77-35.63-9.29-44.44-23.69-44.44-43.33,0-25.36,17.07-42.57,48.06-42.57,34.76,0,48.61,20.76,50.48,42.04h-28.52c-1.37-8.95-5.82-18.67-22.7-18.67-11.49,0-18.42,5.27-18.42,15.6s5.56,14.22,26.71,19.67c38.08,9.97,46.43,25.71,46.43,46.22,0,26.56-18.09,44.78-52.7,44.78s-50.73-18.18-53.87-44.7h28.52Z"/><path class="cls-1" d="m383.7,168.63v17.93h-3.53v-17.93h3.53Z"/><path class="cls-1" d="m386.82,176.49c0-1.14,0-2.4-.02-3.39h3.28c.07.35.11,1.28.13,1.71.42-.85,1.41-2.03,3.55-2.03,2.46,0,4.06,1.83,4.06,5.21v8.56h-3.39v-8.15c0-1.51-.46-2.61-1.96-2.61s-2.27.88-2.27,3.26v7.5h-3.39v-10.07Z"/><path class="cls-1" d="m402.94,173.1c1.17,4.56,2.14,8.55,2.38,10.16h.02c.34-2.22,1.54-6.28,2.61-10.16h3.38l-4.33,13.46h-3.57l-4.15-13.46h3.65Z"/><path class="cls-1" d="m415.5,180.63c0,1.68.77,3.33,2.46,3.33,1.41,0,1.82-.62,2.14-1.44h3.39c-.43,1.65-1.77,4.35-5.62,4.35s-5.79-3.31-5.79-6.85c0-4.22,1.97-7.24,5.91-7.24,4.21,0,5.64,3.34,5.64,6.7,0,.46,0,.75-.04,1.13h-8.08Zm4.73-2.29c-.02-1.57-.59-2.89-2.25-2.89s-2.28,1.23-2.41,2.89h4.66Z"/><path class="cls-1" d="m426.03,176.49c0-1.14,0-2.4-.02-3.39h3.28c.07.35.11,1.28.13,1.71.42-.85,1.41-2.03,3.55-2.03,2.46,0,4.06,1.83,4.06,5.21v8.56h-3.39v-8.15c0-1.51-.46-2.61-1.96-2.61s-2.27.88-2.27,3.26v7.5h-3.39v-10.07Z"/><path class="cls-1" d="m438.61,173.1h1.89v-3.64h3.39v3.64h2.4v2.8h-2.4v6.64c0,1.02.28,1.42,1.3,1.42.19,0,.52,0,.77-.04v2.56c-.67.25-1.6.26-2.28.26-2.39,0-3.18-1.4-3.18-3.76v-7.08h-1.89v-2.8Z"/><path class="cls-1" d="m459.55,179.81c0,4.07-2.22,7.07-6.1,7.07s-6.02-2.98-6.02-7,2.29-7.09,6.18-7.09c3.61,0,5.94,2.8,5.94,7.02Zm-8.67.03c0,2.59,1.01,4.12,2.65,4.12s2.58-1.54,2.58-4.1c0-2.82-.94-4.15-2.63-4.15-1.57,0-2.6,1.28-2.6,4.13Z"/><path class="cls-1" d="m461.87,176.75c0-1.34,0-2.52-.02-3.65h3.33c.04.3.09,1.64.09,2.36.54-1.54,1.85-2.66,3.93-2.67v3.56c-2.46-.07-3.93.66-3.93,4.35v5.87h-3.39v-9.81Z"/><path class="cls-1" d="m474.09,173.1c1.27,4.64,2.37,8.79,2.56,10.03h.02c.27-1.36.98-4.37,2.44-10.03h3.38l-4.12,13.85c-1.17,3.87-2.15,5.03-5.09,5.03-.3,0-1-.03-1.59-.1v-2.99c.23.03.6.06.88.06,1.25,0,1.87-.48,2.33-1.96l-4.46-13.87h3.64Z"/><path class="cls-1" d="m503.96,179.84c0-3.06.04-6.49.12-8.51h-.11c-.77,3.66-2.4,9.63-3.96,15.24h-3c-1.19-4.9-2.88-11.71-3.59-15.29h-.11c.14,2.1.21,5.79.21,8.87v6.42h-3.22v-17.93h5.25c1.27,4.68,2.7,10.56,3.19,13.23h.03c.4-2.36,2.19-8.64,3.55-13.23h5.06v17.93h-3.4v-6.72Z"/><path class="cls-1" d="m520.54,183.08c0,1.28.09,3.15.17,3.48h-3.24c-.09-.27-.17-.98-.17-1.32-.45.76-1.28,1.63-3.44,1.63-2.95,0-4.2-2.13-4.2-4.22,0-3.07,2.24-4.48,5.83-4.48h1.75v-.82c0-.96-.31-1.9-1.89-1.9-1.43,0-1.75.67-1.9,1.64h-3.23c.18-2.39,1.53-4.33,5.25-4.3,3.28.02,5.07,1.43,5.07,4.63v5.66Zm-3.31-2.65h-1.38c-2.04,0-2.8.69-2.8,1.98,0,.97.54,1.79,1.76,1.79,2.16,0,2.42-1.65,2.42-3.42v-.35Z"/><path class="cls-1" d="m523.62,176.49c0-1.14,0-2.4-.02-3.39h3.29c.07.35.11,1.28.13,1.71.42-.85,1.41-2.03,3.55-2.03,2.46,0,4.06,1.83,4.06,5.21v8.56h-3.39v-8.15c0-1.51-.46-2.61-1.96-2.61s-2.27.88-2.27,3.26v7.5h-3.39v-10.07Z"/><path class="cls-1" d="m547.65,183.08c0,1.28.09,3.15.17,3.48h-3.24c-.1-.27-.17-.98-.17-1.32-.44.76-1.28,1.63-3.44,1.63-2.95,0-4.2-2.13-4.2-4.22,0-3.07,2.24-4.48,5.83-4.48h1.75v-.82c0-.96-.31-1.9-1.89-1.9-1.43,0-1.75.67-1.9,1.64h-3.23c.18-2.39,1.53-4.33,5.25-4.3,3.28.02,5.07,1.43,5.07,4.63v5.66Zm-3.31-2.65h-1.38c-2.04,0-2.8.69-2.8,1.98,0,.97.54,1.79,1.76,1.79,2.16,0,2.42-1.65,2.42-3.42v-.35Z"/><path class="cls-1" d="m561.86,184.92c0,4.32-1.45,7.05-6.09,7.05s-5.35-2.75-5.47-4.26h3.46c.24.92.86,1.55,2.17,1.55,2.2,0,2.62-1.47,2.62-4.11v-.64c-.64,1.16-1.65,1.89-3.45,1.89-3.23,0-5.07-2.91-5.07-6.52,0-4.21,2.29-7.09,5.36-7.09,2.1,0,2.98,1.09,3.16,1.72.02-.37.11-1.18.13-1.4h3.22c-.02,1.2-.03,2.57-.03,3.86v7.96Zm-8.36-5.21c0,2.32,1.05,3.68,2.55,3.68,2.04,0,2.59-1.54,2.59-3.8s-.36-3.82-2.52-3.82c-1.47,0-2.62,1.25-2.62,3.94Z"/><path class="cls-1" d="m564.86,176.57c0-1.16,0-2.32-.02-3.47h3.24c.04.33.11,1.08.13,1.6.62-1,1.61-1.92,3.4-1.92s2.73,1,3.16,2.05c.72-1.1,1.77-2.05,3.77-2.05,2.13,0,3.88,1.44,3.88,4.94v8.83h-3.31v-8.38c0-1.22-.4-2.4-1.79-2.4s-2,1.02-2,3.08v7.69h-3.33v-8.23c0-1.39-.31-2.52-1.76-2.52s-2.03.93-2.03,3.24v7.52h-3.35v-9.99Z"/><path class="cls-1" d="m588.17,180.63c0,1.68.77,3.33,2.46,3.33,1.41,0,1.82-.62,2.14-1.44h3.39c-.43,1.65-1.77,4.35-5.62,4.35s-5.79-3.31-5.79-6.85c0-4.22,1.97-7.24,5.91-7.24,4.21,0,5.64,3.34,5.64,6.7,0,.46,0,.75-.04,1.13h-8.08Zm4.73-2.29c-.02-1.57-.59-2.89-2.25-2.89s-2.28,1.23-2.41,2.89h4.66Z"/><path class="cls-1" d="m598.7,176.49c0-1.14,0-2.4-.02-3.39h3.28c.07.35.11,1.28.13,1.71.42-.85,1.41-2.03,3.55-2.03,2.46,0,4.06,1.83,4.06,5.21v8.56h-3.39v-8.15c0-1.51-.46-2.61-1.96-2.61s-2.27.88-2.27,3.26v7.5h-3.39v-10.07Z"/><path class="cls-1" d="m611.28,173.1h1.89v-3.64h3.39v3.64h2.4v2.8h-2.4v6.64c0,1.02.28,1.42,1.29,1.42.19,0,.52,0,.77-.04v2.56c-.67.25-1.59.26-2.28.26-2.39,0-3.18-1.4-3.18-3.76v-7.08h-1.89v-2.8Z"/><path class="cls-1" d="m629.59,181.31c.37,1.8,1.55,2.59,3.44,2.59s2.69-.82,2.69-2.13c0-1.46-.79-2.09-3.58-2.81-4.44-1.15-5.54-2.92-5.54-5.34,0-3.12,2.13-5.25,5.99-5.25,4.33,0,6.06,2.56,6.29,5.18h-3.55c-.17-1.1-.73-2.3-2.83-2.3-1.43,0-2.3.65-2.3,1.92s.69,1.75,3.33,2.42c4.75,1.23,5.79,3.17,5.79,5.7,0,3.27-2.25,5.52-6.57,5.52s-6.32-2.24-6.71-5.51h3.55Z"/><path class="cls-1" d="m643.9,173.1c1.27,4.64,2.37,8.79,2.56,10.03h.02c.27-1.36.98-4.37,2.45-10.03h3.38l-4.12,13.85c-1.17,3.87-2.15,5.03-5.09,5.03-.3,0-1-.03-1.59-.1v-2.99c.23.03.6.06.88.06,1.25,0,1.87-.48,2.33-1.96l-4.46-13.87h3.63Z"/><path class="cls-1" d="m656.42,182.51c.26,1.07,1.05,1.67,2.32,1.67s1.71-.49,1.71-1.31c0-.86-.53-1.2-2.28-1.68-3.99-1.08-4.64-2.44-4.64-4.34s1.27-4.08,4.97-4.08,4.97,2.23,5.08,4.05h-3.23c-.11-.5-.41-1.44-2.01-1.44-1.12,0-1.48.55-1.48,1.15,0,.67.38.99,2.37,1.5,4.09,1.04,4.67,2.58,4.67,4.56,0,2.23-1.54,4.26-5.28,4.26s-5.25-1.97-5.52-4.36h3.33Z"/><path class="cls-1" d="m664.79,173.1h1.89v-3.64h3.39v3.64h2.4v2.8h-2.4v6.64c0,1.02.29,1.42,1.3,1.42.19,0,.52,0,.77-.04v2.56c-.67.25-1.6.26-2.28.26-2.39,0-3.18-1.4-3.18-3.76v-7.08h-1.89v-2.8Z"/><path class="cls-1" d="m677.04,180.63c0,1.68.77,3.33,2.46,3.33,1.41,0,1.82-.62,2.14-1.44h3.39c-.44,1.65-1.77,4.35-5.62,4.35s-5.79-3.31-5.79-6.85c0-4.22,1.97-7.24,5.91-7.24,4.21,0,5.64,3.34,5.64,6.7,0,.46,0,.75-.04,1.13h-8.08Zm4.73-2.29c-.02-1.57-.59-2.89-2.25-2.89s-2.28,1.23-2.41,2.89h4.66Z"/><path class="cls-1" d="m687.54,176.57c0-1.16,0-2.32-.02-3.47h3.24c.04.33.11,1.08.13,1.6.62-1,1.61-1.92,3.4-1.92s2.73,1,3.16,2.05c.72-1.1,1.78-2.05,3.77-2.05,2.13,0,3.88,1.44,3.88,4.94v8.83h-3.31v-8.38c0-1.22-.4-2.4-1.79-2.4s-2,1.02-2,3.08v7.69h-3.33v-8.23c0-1.39-.31-2.52-1.76-2.52s-2.03.93-2.03,3.24v7.52h-3.35v-9.99Z"/></g></g></svg>