<?xml version="1.0" encoding="UTF-8"?><svg id="Layer_2" xmlns="http://www.w3.org/2000/svg" viewBox="0 0 705.02 190.44"><defs><style>.cls-1{fill:#fff;}.cls-2{fill:#ffeac0;}</style></defs><g id="Layer_1-2"><g><path class="cls-2" d="m13.89,115.03c3.81,18.71,15.15,29.37,35.77,29.37,22.63,0,31.42-12.25,31.42-27.31s-6.59-25.18-34.58-32.79C17.03,76.22,5.48,65.31,5.48,44.3S19,5.83,47.94,5.83s42.87,20,44.61,38.55h-13.89c-2.73-14.57-11.16-25.66-31.31-25.66-17.78,0-27.58,9.07-27.58,24.41s8.16,21.05,32.04,27.57c37.53,10.27,43.56,26.77,43.56,45,0,22.61-14.94,41.29-46.41,41.29-33.23,0-46.36-20.91-48.95-41.96h13.89Z"/><path class="cls-2" d="m115.03,155.24V0h12.72v155.24h-12.72Z"/><path class="cls-2" d="m231.86,101.94c0,30.01-15.2,55.83-44.01,55.83-26.52,0-42.81-23.56-42.81-55.55s15.61-55.69,43.82-55.69c25.93,0,43,22.08,43,55.41Zm-73.56.21c0,24.36,11.42,43.2,30.27,43.2s30.02-17.63,30.02-43.17-10.69-43.23-30.4-43.23-29.89,18.29-29.89,43.2Z"/><path class="cls-2" d="m235.27,49.06h17.2V16.75h12.72v32.31h21.99v12.25h-21.99v65.9c0,11.17,2.28,17.28,11.21,17.28,2.6,0,6.35-.18,9.2-1.1v11.38c-3.62,1.58-8.7,1.93-12.96,1.93-13.43,0-20.18-7.6-20.18-24.88V61.31h-17.2v-12.25Z"/><path class="cls-2" d="m305.85,125.44c3.01,12.8,11.32,20.42,25.44,20.42,15.65,0,21.91-7.81,21.91-18.67s-4.5-16.45-24.46-21.8c-25.87-6.95-31.79-15.68-31.79-29.88s9.94-28.98,32.89-28.98,33.2,15.2,34.6,30.15h-12.48c-1.56-7.98-7.12-18.35-22.65-18.35s-19.56,8.23-19.56,16.02c0,8.93,4.28,13.37,22.57,18.27,27.87,7.41,34.15,17.62,34.15,33.48,0,19-13.75,31.66-35.51,31.66-23.14,0-35.32-13.27-37.89-32.33h12.79Z"/><path class="cls-1" d="m413.38,9.77v145.47h-28.31V9.77h28.31Z"/><path class="cls-1" d="m548.22,100.67c0-24.82.36-52.65.93-69.09h-.9c-6.15,29.68-19.24,78.14-31.8,123.66h-24.11c-9.55-39.8-23.08-95-28.83-124.05h-.88c1.12,17.07,1.66,47,1.66,71.95v52.1h-25.8V9.77h42.13c10.21,38.01,21.65,85.69,25.58,107.37h.21c3.21-19.12,17.59-70.1,28.51-107.37h40.6v145.47h-27.3v-54.57Z"/><path class="cls-1" d="m620.67,112.6c2.98,14.61,12.42,21.01,27.57,21.01s21.58-6.63,21.58-17.28c0-11.84-6.31-16.98-28.7-22.77-35.63-9.29-44.44-23.69-44.44-43.33,0-25.36,17.07-42.57,48.06-42.57,34.76,0,48.61,20.76,50.48,42.04h-28.52c-1.37-8.95-5.82-18.67-22.7-18.67-11.49,0-18.42,5.27-18.42,15.6s5.56,14.22,26.71,19.67c38.08,9.97,46.43,25.71,46.43,46.22,0,26.56-18.09,44.78-52.7,44.78s-50.73-18.18-53.87-44.7h28.52Z"/><path class="cls-1" d="m383.19,168v17.23h-3.39v-17.23h3.39Z"/><path class="cls-1" d="m386.2,175.56c0-1.1,0-2.3-.02-3.26h3.16c.07.33.11,1.23.13,1.65.4-.81,1.35-1.95,3.42-1.95,2.37,0,3.9,1.76,3.9,5.01v8.23h-3.26v-7.83c0-1.45-.44-2.51-1.88-2.51s-2.18.85-2.18,3.13v7.21h-3.26v-9.68Z"/><path class="cls-1" d="m401.7,172.3c1.12,4.38,2.06,8.21,2.29,9.77h.02c.33-2.13,1.48-6.04,2.51-9.77h3.25l-4.16,12.94h-3.43l-3.99-12.94h3.51Z"/><path class="cls-1" d="m413.77,179.53c0,1.62.74,3.2,2.36,3.2,1.36,0,1.75-.6,2.05-1.38h3.26c-.42,1.58-1.7,4.18-5.4,4.18s-5.56-3.19-5.56-6.58c0-4.06,1.9-6.96,5.68-6.96,4.04,0,5.42,3.21,5.42,6.44,0,.44,0,.72-.04,1.09h-7.77Zm4.55-2.2c-.02-1.51-.57-2.77-2.16-2.77s-2.19,1.18-2.32,2.77h4.48Z"/><path class="cls-1" d="m423.89,175.56c0-1.1,0-2.3-.02-3.26h3.16c.07.33.11,1.23.13,1.65.4-.81,1.35-1.95,3.42-1.95,2.37,0,3.9,1.76,3.9,5.01v8.23h-3.26v-7.83c0-1.45-.44-2.51-1.88-2.51s-2.18.85-2.18,3.13v7.21h-3.26v-9.68Z"/><path class="cls-1" d="m435.99,172.3h1.82v-3.5h3.26v3.5h2.31v2.69h-2.31v6.38c0,.98.27,1.36,1.24,1.36.18,0,.5,0,.74-.04v2.46c-.65.24-1.53.25-2.19.25-2.3,0-3.06-1.35-3.06-3.61v-6.81h-1.82v-2.69Z"/><path class="cls-1" d="m456.12,178.74c0,3.91-2.13,6.79-5.86,6.79s-5.78-2.86-5.78-6.72,2.2-6.81,5.94-6.81c3.47,0,5.71,2.69,5.71,6.74Zm-8.34.02c0,2.49.98,3.97,2.55,3.97s2.48-1.48,2.48-3.94c0-2.71-.9-3.99-2.53-3.99-1.51,0-2.5,1.23-2.5,3.97Z"/><path class="cls-1" d="m458.36,175.81c0-1.29,0-2.43-.02-3.51h3.2c.04.29.09,1.57.09,2.27.52-1.48,1.78-2.56,3.78-2.57v3.42c-2.37-.07-3.78.63-3.78,4.18v5.64h-3.26v-9.43Z"/><path class="cls-1" d="m470.11,172.3c1.22,4.46,2.28,8.45,2.46,9.64h.02c.25-1.3.94-4.2,2.35-9.64h3.25l-3.96,13.31c-1.13,3.72-2.06,4.83-4.89,4.83-.29,0-.96-.02-1.53-.1v-2.88c.22.03.58.05.84.05,1.2,0,1.8-.46,2.24-1.89l-4.29-13.33h3.49Z"/><path class="cls-1" d="m498.82,178.77c0-2.94.04-6.24.11-8.18h-.11c-.74,3.52-2.31,9.26-3.81,14.65h-2.89c-1.14-4.71-2.77-11.25-3.45-14.69h-.11c.13,2.02.2,5.57.2,8.52v6.17h-3.09v-17.23h5.05c1.22,4.5,2.59,10.15,3.06,12.72h.03c.38-2.26,2.11-8.3,3.42-12.72h4.86v17.23h-3.27v-6.46Z"/><path class="cls-1" d="m514.76,181.89c0,1.23.09,3.03.16,3.34h-3.11c-.09-.26-.16-.94-.17-1.26-.43.73-1.23,1.56-3.31,1.56-2.84,0-4.04-2.05-4.04-4.06,0-2.95,2.15-4.31,5.61-4.31h1.68v-.79c0-.92-.3-1.82-1.81-1.82-1.38,0-1.68.64-1.83,1.58h-3.1c.18-2.3,1.47-4.16,5.05-4.14,3.15.02,4.87,1.38,4.87,4.46v5.44Zm-3.18-2.55h-1.33c-1.96,0-2.69.66-2.69,1.91,0,.94.52,1.73,1.7,1.73,2.07,0,2.33-1.58,2.33-3.29v-.34Z"/><path class="cls-1" d="m517.74,175.56c0-1.1,0-2.3-.02-3.26h3.16c.07.33.11,1.23.12,1.65.4-.81,1.35-1.95,3.42-1.95,2.37,0,3.9,1.76,3.9,5.01v8.23h-3.26v-7.83c0-1.45-.44-2.51-1.88-2.51s-2.18.85-2.18,3.13v7.21h-3.26v-9.68Z"/><path class="cls-1" d="m540.83,181.89c0,1.23.09,3.03.16,3.34h-3.12c-.09-.26-.16-.94-.17-1.26-.43.73-1.23,1.56-3.31,1.56-2.84,0-4.04-2.05-4.04-4.06,0-2.95,2.15-4.31,5.61-4.31h1.68v-.79c0-.92-.3-1.82-1.81-1.82-1.38,0-1.68.64-1.83,1.58h-3.1c.18-2.3,1.47-4.16,5.05-4.14,3.15.02,4.87,1.38,4.87,4.46v5.44Zm-3.18-2.55h-1.33c-1.96,0-2.69.66-2.69,1.91,0,.94.52,1.73,1.7,1.73,2.07,0,2.33-1.58,2.33-3.29v-.34Z"/><path class="cls-1" d="m554.5,183.66c0,4.15-1.4,6.78-5.86,6.78s-5.15-2.64-5.26-4.1h3.32c.23.89.82,1.49,2.08,1.49,2.12,0,2.52-1.42,2.52-3.95v-.62c-.62,1.12-1.59,1.82-3.32,1.82-3.1,0-4.87-2.79-4.87-6.27,0-4.04,2.21-6.81,5.15-6.81,2.02,0,2.86,1.05,3.04,1.65.02-.35.11-1.14.13-1.35h3.09c-.02,1.15-.03,2.47-.03,3.71v7.65Zm-8.03-5.01c0,2.23,1.01,3.54,2.46,3.54,1.96,0,2.49-1.48,2.49-3.65s-.35-3.67-2.42-3.67c-1.41,0-2.52,1.2-2.52,3.78Z"/><path class="cls-1" d="m560.08,179.53c0,1.62.74,3.2,2.36,3.2,1.36,0,1.75-.6,2.05-1.38h3.26c-.42,1.58-1.7,4.18-5.4,4.18s-5.56-3.19-5.56-6.58c0-4.06,1.89-6.96,5.68-6.96,4.04,0,5.42,3.21,5.42,6.44,0,.44,0,.72-.04,1.09h-7.77Zm4.55-2.2c-.02-1.51-.57-2.77-2.16-2.77s-2.19,1.18-2.32,2.77h4.48Z"/><path class="cls-1" d="m570.17,175.63c0-1.12,0-2.23-.02-3.33h3.12c.04.31.11,1.04.12,1.54.6-.96,1.54-1.84,3.27-1.84s2.62.96,3.04,1.97c.69-1.06,1.71-1.97,3.63-1.97,2.05,0,3.73,1.39,3.73,4.75v8.49h-3.18v-8.05c0-1.17-.39-2.31-1.72-2.31s-1.93.98-1.93,2.97v7.4h-3.2v-7.92c0-1.34-.3-2.42-1.69-2.42s-1.96.9-1.96,3.11v7.23h-3.22v-9.6Z"/><path class="cls-1" d="m592.58,179.53c0,1.62.74,3.2,2.36,3.2,1.36,0,1.74-.6,2.05-1.38h3.26c-.42,1.58-1.7,4.18-5.4,4.18s-5.56-3.19-5.56-6.58c0-4.06,1.9-6.96,5.68-6.96,4.04,0,5.42,3.21,5.42,6.44,0,.44,0,.72-.04,1.09h-7.77Zm4.55-2.2c-.02-1.51-.57-2.77-2.16-2.77s-2.19,1.18-2.32,2.77h4.48Z"/><path class="cls-1" d="m602.7,175.56c0-1.1,0-2.3-.02-3.26h3.16c.07.33.11,1.23.13,1.65.4-.81,1.35-1.95,3.42-1.95,2.37,0,3.9,1.76,3.9,5.01v8.23h-3.26v-7.83c0-1.45-.44-2.51-1.88-2.51s-2.18.85-2.18,3.13v7.21h-3.26v-9.68Z"/><path class="cls-1" d="m614.8,172.3h1.82v-3.5h3.26v3.5h2.31v2.69h-2.31v6.38c0,.98.27,1.36,1.24,1.36.18,0,.5,0,.74-.04v2.46c-.65.24-1.53.25-2.19.25-2.3,0-3.06-1.35-3.06-3.61v-6.81h-1.82v-2.69Z"/><path class="cls-1" d="m632.41,180.18c.36,1.73,1.49,2.49,3.3,2.49s2.58-.79,2.58-2.05c0-1.4-.76-2.01-3.44-2.7-4.27-1.1-5.32-2.81-5.32-5.13,0-3,2.05-5.04,5.76-5.04,4.16,0,5.82,2.46,6.05,4.98h-3.42c-.16-1.06-.7-2.21-2.72-2.21-1.38,0-2.21.62-2.21,1.85s.67,1.68,3.2,2.33c4.56,1.18,5.56,3.05,5.56,5.47,0,3.15-2.17,5.31-6.31,5.31s-6.08-2.15-6.45-5.29h3.42Z"/><path class="cls-1" d="m646.17,172.3c1.22,4.46,2.28,8.45,2.46,9.64h.02c.25-1.3.94-4.2,2.35-9.64h3.25l-3.96,13.31c-1.12,3.72-2.06,4.83-4.89,4.83-.29,0-.96-.02-1.53-.1v-2.88c.22.03.58.05.84.05,1.2,0,1.8-.46,2.24-1.89l-4.29-13.33h3.5Z"/><path class="cls-1" d="m658.21,181.35c.25,1.03,1.01,1.61,2.23,1.61s1.64-.48,1.64-1.26c0-.83-.51-1.16-2.19-1.61-3.84-1.04-4.46-2.34-4.46-4.17s1.22-3.92,4.78-3.92,4.78,2.14,4.88,3.9h-3.1c-.11-.48-.39-1.38-1.93-1.38-1.08,0-1.43.52-1.43,1.11,0,.64.37.95,2.28,1.44,3.93,1,4.49,2.48,4.49,4.38,0,2.14-1.48,4.09-5.07,4.09s-5.05-1.9-5.31-4.19h3.2Z"/><path class="cls-1" d="m666.26,172.3h1.81v-3.5h3.26v3.5h2.31v2.69h-2.31v6.38c0,.98.27,1.36,1.24,1.36.18,0,.5,0,.74-.04v2.46c-.65.24-1.53.25-2.19.25-2.3,0-3.06-1.35-3.06-3.61v-6.81h-1.81v-2.69Z"/><path class="cls-1" d="m678.03,179.53c0,1.62.74,3.2,2.36,3.2,1.36,0,1.75-.6,2.05-1.38h3.26c-.42,1.58-1.7,4.18-5.4,4.18s-5.56-3.19-5.56-6.58c0-4.06,1.89-6.96,5.68-6.96,4.04,0,5.42,3.21,5.42,6.44,0,.44,0,.72-.04,1.09h-7.77Zm4.55-2.2c-.02-1.51-.57-2.77-2.16-2.77s-2.19,1.18-2.32,2.77h4.48Z"/><path class="cls-1" d="m688.13,175.63c0-1.12,0-2.23-.02-3.33h3.12c.04.31.11,1.04.12,1.54.6-.96,1.54-1.84,3.27-1.84s2.62.96,3.04,1.97c.69-1.06,1.71-1.97,3.63-1.97,2.05,0,3.73,1.39,3.73,4.75v8.49h-3.18v-8.05c0-1.17-.39-2.31-1.72-2.31s-1.93.98-1.93,2.97v7.4h-3.2v-7.92c0-1.34-.3-2.42-1.69-2.42s-1.96.9-1.96,3.11v7.23h-3.22v-9.6Z"/></g></g></svg>